
<svg xmlns="http://www.w3.org/2000/svg" width="625" height="208" viewBox="0 0 625 208" version="1.1"><path d="" stroke="none" fill="#500ccc" fill-rule="evenodd"/><path d="M 96.951 23.301 C 84.111 26.936, 76.597 36.087, 73.956 51.309 C 70.878 69.044, 78.827 87.205, 92.212 93.018 C 99.521 96.192, 115.185 96.960, 123.470 94.552 C 131.259 92.288, 138.131 85.779, 141.475 77.500 C 142.808 74.200, 143.584 71.210, 143.199 70.856 C 142.384 70.105, 125.738 65, 124.105 65 C 123.497 65, 123 65.693, 123 66.540 C 123 69.896, 119.013 75.766, 115.649 77.362 C 111.405 79.376, 108.941 79.420, 104.490 77.560 C 99.907 75.645, 97.268 71.019, 96.461 63.483 C 95.469 54.215, 97.314 46.810, 101.539 43.100 C 108.100 37.339, 116.945 38.402, 121.104 45.451 C 122.255 47.403, 123.569 49, 124.023 49 C 124.477 49, 128.949 48.056, 133.961 46.902 C 142.422 44.954, 143.027 44.650, 142.432 42.652 C 140.285 35.434, 133.168 27.413, 126.213 24.373 C 121.268 22.212, 103.143 21.548, 96.951 23.301 M 173.314 23.796 C 157.347 29.502, 150.440 40.342, 150.565 59.500 C 150.650 72.527, 153.112 79.243, 160.519 86.649 C 167.774 93.905, 175.839 96.390, 190.297 95.825 C 202.434 95.351, 209.403 92.679, 215.862 86.023 C 222.265 79.425, 224.387 72.732, 224.429 59 C 224.472 45.205, 222.435 38.881, 215.753 32.059 C 208.875 25.037, 202.546 22.679, 189.500 22.280 C 180.699 22.010, 177.463 22.313, 173.314 23.796 M 237 59 L 237 95 265.500 95 L 294 95 294 86 L 294 77 277 77 L 260 77 260 50 L 260 23 248.500 23 L 237 23 237 59 M 301 46.684 C 301 65.566, 301.332 71.551, 302.635 76.197 C 304.635 83.325, 310.094 89.883, 316.761 93.166 C 321.042 95.274, 322.853 95.500, 335.500 95.500 C 347.590 95.500, 350.115 95.215, 354.011 93.412 C 359.446 90.896, 364.297 86.228, 367.289 80.634 C 369.386 76.713, 369.516 75.123, 369.810 49.750 L 370.119 23 358.560 23 L 347 23 347 47.365 C 347 70.279, 346.880 71.883, 344.984 74.293 C 340.240 80.324, 329.798 79.996, 325.956 73.696 C 324.169 70.766, 324.007 68.527, 324.004 46.750 L 324 23 312.500 23 L 301 23 301 46.684 M 384 59 L 384 95 393.500 95 L 403 95 403.081 70.750 L 403.162 46.500 409.422 70.500 L 415.682 94.500 424.312 94.789 L 432.943 95.077 433.634 92.289 C 434.015 90.755, 436.918 79.600, 440.087 67.500 L 445.847 45.500 445.923 70.250 L 446 95 455.500 95 L 465 95 465 59 L 465 23 450.111 23 L 435.222 23 433.543 29.250 C 432.619 32.688, 430.182 42.235, 428.128 50.467 L 424.391 65.434 418.946 44.219 L 413.500 23.004 398.750 23.002 L 384 23 384 59 M 479 59 L 479 95 489.978 95 L 500.956 95 501.228 76.407 L 501.500 57.813 513.993 76.407 L 526.486 95 537.243 95 L 548 95 548 59 L 548 23 537.522 23 L 527.043 23 526.772 42.114 L 526.500 61.228 513.550 42.114 L 500.599 23 489.800 23 L 479 23 479 59 M 181.500 40.838 C 175.216 43.806, 173.502 47.697, 173.501 59 C 173.500 70.745, 175.506 74.882, 182.497 77.552 C 190.552 80.628, 198.481 77.012, 200.824 69.193 C 202.509 63.568, 202.286 52.755, 200.386 48.007 C 197.361 40.447, 189.028 37.284, 181.500 40.838 M 9 158 L 9 176 20.032 176 C 32.734 176, 36.558 174.834, 40.082 169.886 C 43.469 165.128, 43.989 155.023, 41.173 148.659 C 37.926 141.319, 34.834 140.008, 20.750 140.004 L 9 140 9 158 M 288 158 L 288 176 293.500 176 L 299 176 299 158 L 299 140 293.500 140 L 288 140 288 158 M 461.500 142.292 C 458.602 143.928, 457.413 145.301, 457.184 147.275 C 456.961 149.193, 456.295 150, 454.934 150 C 453.390 150, 453 150.707, 453 153.500 C 453 156.333, 453.381 157, 455 157 C 456.833 157, 457 157.667, 457 165 C 457 175.408, 458.335 177, 467.060 177 L 473.121 177 472.810 173.250 C 472.541 169.999, 472.167 169.500, 470 169.500 C 467.632 169.500, 467.484 169.171, 467.202 163.250 L 466.905 157 469.952 157 C 472.769 157, 473 156.734, 473 153.500 C 473 150.278, 472.762 150, 470 150 C 467.067 150, 467 149.889, 467 145 C 467 142.250, 466.663 140.007, 466.250 140.016 C 465.837 140.025, 463.700 141.049, 461.500 142.292 M 494 158 L 494 176 499 176 L 504 176 504.014 169.250 C 504.030 161.159, 504.685 158.335, 506.725 157.552 C 509.896 156.335, 511 158.936, 511 167.622 L 511 176 516.500 176 L 522 176 522 166.649 C 522 156.459, 520.798 151.497, 517.961 149.979 C 515.180 148.491, 508.718 148.809, 506.223 150.557 L 504 152.113 504 146.057 L 504 140 499 140 L 494 140 494 158 M 21 158 L 21 168 24 168 C 28.837 168, 31.003 164.977, 30.985 158.250 C 30.976 155.088, 30.639 152.005, 30.235 151.400 C 29.144 149.767, 25.418 148, 23.066 148 C 21.116 148, 21 148.561, 21 158 M 59.652 149.682 C 59.277 150.056, 56.502 150.249, 53.485 150.109 L 48 149.855 48 162.927 L 48 176 53.500 176 L 59 176 59 168.071 C 59 159.614, 60.497 156.388, 63.917 157.474 C 66.226 158.207, 69.835 151.146, 67.808 149.860 C 66.224 148.856, 60.601 148.733, 59.652 149.682 M 78 149.704 C 74.924 150.823, 70.935 155.527, 69.946 159.202 C 68.576 164.287, 70.126 169.788, 73.962 173.464 C 79.617 178.882, 92.757 177.958, 97.116 171.837 C 101.805 165.252, 100.160 154.897, 93.810 151.026 C 90.588 149.061, 81.788 148.325, 78 149.704 M 117.223 150.557 C 115.977 151.429, 115 151.649, 115 151.057 C 115 150.455, 112.846 150, 110 150 L 105 150 105 163 L 105 176 110 176 L 115 176 115.014 169.250 C 115.030 161.159, 115.685 158.335, 117.725 157.552 C 120.896 156.335, 122 158.936, 122 167.622 L 122 176 127 176 L 132 176 132.014 169.250 C 132.030 161.159, 132.685 158.335, 134.725 157.552 C 137.896 156.335, 139 158.936, 139 167.622 L 139 176 144 176 L 149 176 149 165.135 C 149 155.657, 148.735 153.933, 146.927 151.635 C 144.287 148.278, 137.615 147.942, 133.764 150.971 C 131.270 152.933, 131.249 152.933, 129.474 150.971 C 127.267 148.533, 120.442 148.302, 117.223 150.557 M 174.856 150.516 C 173.402 151.306, 171.753 153.271, 171.191 154.882 C 170.286 157.477, 170.417 157.877, 172.335 158.392 C 176.161 159.418, 180.102 159.041, 181.643 157.500 C 183.385 155.758, 186.587 155.523, 187.541 157.067 C 188.515 158.642, 187.873 158.975, 179.936 161.016 C 175.951 162.041, 171.996 163.576, 171.146 164.426 C 168.730 166.842, 169.163 172.904, 171.911 175.129 C 174.752 177.429, 181.901 177.620, 185.993 175.504 C 187.818 174.560, 189.114 174.375, 189.502 175.004 C 189.841 175.552, 192.229 176.001, 194.809 176.001 L 199.500 176.003 198.989 164.906 C 198.500 154.283, 198.359 153.705, 195.683 151.404 C 193.244 149.306, 191.910 149.005, 185.194 149.040 C 180.472 149.065, 176.479 149.635, 174.856 150.516 M 217.223 150.557 C 215.977 151.429, 215 151.649, 215 151.057 C 215 150.455, 212.846 150, 210 150 L 205 150 205 163 L 205 176 210 176 L 215 176 215.014 169.250 C 215.030 161.159, 215.685 158.335, 217.725 157.552 C 220.896 156.335, 222 158.936, 222 167.622 L 222 176 227.500 176 L 233 176 233 166.649 C 233 156.459, 231.798 151.497, 228.961 149.979 C 226.180 148.491, 219.718 148.809, 217.223 150.557 M 262 149.652 C 258.860 150.903, 254.929 155.552, 253.956 159.165 C 252.270 165.426, 255.035 172.932, 259.967 175.483 C 263.727 177.427, 273.277 177.437, 277.358 175.500 C 281.427 173.570, 283.774 170.105, 281.842 168.881 C 279.903 167.652, 273.513 167.809, 270.551 169.159 C 268.432 170.124, 267.674 170.015, 266.004 168.504 C 264.902 167.506, 264 166.310, 264 165.845 C 264 165.380, 268.559 165, 274.130 165 L 284.260 165 283.739 160.378 C 283.355 156.967, 282.408 154.946, 280.123 152.662 C 277.350 149.889, 276.326 149.540, 270.264 149.311 C 266.544 149.170, 262.825 149.323, 262 149.652 M 312 149.652 C 308.860 150.903, 304.929 155.552, 303.956 159.165 C 302.270 165.426, 305.035 172.932, 309.967 175.483 C 313.727 177.427, 323.277 177.437, 327.358 175.500 C 331.427 173.570, 333.774 170.105, 331.842 168.881 C 329.903 167.652, 323.513 167.809, 320.551 169.159 C 318.432 170.124, 317.674 170.015, 316.004 168.504 C 314.902 167.506, 314 166.310, 314 165.845 C 314 165.380, 318.559 165, 324.130 165 L 334.260 165 333.739 160.378 C 333.355 156.967, 332.408 154.946, 330.123 152.662 C 327.350 149.889, 326.326 149.540, 320.264 149.311 C 316.544 149.170, 312.825 149.323, 312 149.652 M 350.223 150.557 C 348.977 151.429, 348 151.649, 348 151.057 C 348 150.455, 345.846 150, 343 150 L 338 150 338 163 L 338 176 343 176 L 348 176 348.014 169.250 C 348.030 161.159, 348.685 158.335, 350.725 157.552 C 353.896 156.335, 355 158.936, 355 167.622 L 355 176 360 176 L 365 176 365.014 169.250 C 365.030 161.159, 365.685 158.335, 367.725 157.552 C 370.896 156.335, 372 158.936, 372 167.622 L 372 176 377 176 L 382 176 382 165.135 C 382 155.657, 381.735 153.933, 379.927 151.635 C 377.287 148.278, 370.615 147.942, 366.764 150.971 C 364.270 152.933, 364.249 152.933, 362.474 150.971 C 360.267 148.533, 353.442 148.302, 350.223 150.557 M 395 149.652 C 391.860 150.903, 387.929 155.552, 386.956 159.165 C 385.270 165.426, 388.035 172.932, 392.967 175.483 C 396.727 177.427, 406.277 177.437, 410.358 175.500 C 414.427 173.570, 416.774 170.105, 414.842 168.881 C 412.903 167.652, 406.513 167.809, 403.551 169.159 C 401.432 170.124, 400.674 170.015, 399.004 168.504 C 397.902 167.506, 397 166.310, 397 165.845 C 397 165.380, 401.559 165, 407.130 165 L 417.260 165 416.739 160.378 C 416.355 156.967, 415.408 154.946, 413.123 152.662 C 410.350 149.889, 409.326 149.540, 403.264 149.311 C 399.544 149.170, 395.825 149.323, 395 149.652 M 433.223 150.557 C 431.977 151.429, 431 151.649, 431 151.057 C 431 150.455, 428.846 150, 426 150 L 421 150 421 163 L 421 176 426 176 L 431 176 431.014 169.250 C 431.030 161.159, 431.685 158.335, 433.725 157.552 C 436.896 156.335, 438 158.936, 438 167.622 L 438 176 443.500 176 L 449 176 449 166.649 C 449 156.459, 447.798 151.497, 444.961 149.979 C 442.180 148.491, 435.718 148.809, 433.223 150.557 M 534 149.652 C 530.860 150.903, 526.929 155.552, 525.956 159.165 C 524.270 165.426, 527.035 172.932, 531.967 175.483 C 535.727 177.427, 545.277 177.437, 549.358 175.500 C 553.427 173.570, 555.774 170.105, 553.842 168.881 C 551.903 167.652, 545.513 167.809, 542.551 169.159 C 540.432 170.124, 539.674 170.015, 538.004 168.504 C 536.902 167.506, 536 166.310, 536 165.845 C 536 165.380, 540.559 165, 546.130 165 L 556.260 165 555.739 160.378 C 555.355 156.967, 554.408 154.946, 552.123 152.662 C 549.350 149.889, 548.326 149.540, 542.264 149.311 C 538.544 149.170, 534.825 149.323, 534 149.652 M 571.652 149.682 C 571.277 150.056, 568.502 150.249, 565.485 150.109 L 560 149.855 560 162.927 L 560 176 565.500 176 L 571 176 571 168.071 C 571 159.614, 572.497 156.388, 575.917 157.474 C 578.226 158.207, 581.835 151.146, 579.808 149.860 C 578.224 148.856, 572.601 148.733, 571.652 149.682 M 590 149.652 C 586.860 150.903, 582.929 155.552, 581.956 159.165 C 580.270 165.426, 583.035 172.932, 587.967 175.483 C 591.727 177.427, 601.277 177.437, 605.358 175.500 C 609.427 173.570, 611.774 170.105, 609.842 168.881 C 607.903 167.652, 601.513 167.809, 598.551 169.159 C 596.432 170.124, 595.674 170.015, 594.004 168.504 C 592.902 167.506, 592 166.310, 592 165.845 C 592 165.380, 596.559 165, 602.130 165 L 612.260 165 611.739 160.378 C 611.355 156.967, 610.408 154.946, 608.123 152.662 C 605.350 149.889, 604.326 149.540, 598.264 149.311 C 594.544 149.170, 590.825 149.323, 590 149.652 M 82 158 C 80.900 159.100, 80 161.250, 80 162.777 C 80 165.935, 82.477 170, 84.402 170 C 88.601 170, 90.662 160.814, 87.171 157.655 C 84.842 155.547, 84.425 155.575, 82 158 M 265.383 157.750 C 263.705 159.418, 263.823 159.515, 267.915 159.813 C 272.996 160.183, 274.229 159.372, 271.557 157.418 C 269.001 155.549, 267.516 155.629, 265.383 157.750 M 315.383 157.750 C 313.705 159.418, 313.823 159.515, 317.915 159.813 C 322.996 160.183, 324.229 159.372, 321.557 157.418 C 319.001 155.549, 317.516 155.629, 315.383 157.750 M 398.383 157.750 C 396.705 159.418, 396.823 159.515, 400.915 159.813 C 405.996 160.183, 407.229 159.372, 404.557 157.418 C 402.001 155.549, 400.516 155.629, 398.383 157.750 M 537.383 157.750 C 535.705 159.418, 535.823 159.515, 539.915 159.813 C 544.996 160.183, 546.229 159.372, 543.557 157.418 C 541.001 155.549, 539.516 155.629, 537.383 157.750 M 593.383 157.750 C 591.705 159.418, 591.823 159.515, 595.915 159.813 C 600.996 160.183, 602.229 159.372, 599.557 157.418 C 597.001 155.549, 595.516 155.629, 593.383 157.750 M 182.250 166.031 C 179.478 167.145, 179.352 168.659, 181.962 169.488 C 184.382 170.256, 188 168.445, 188 166.465 C 188 164.835, 185.665 164.659, 182.250 166.031" stroke="none" fill="#4c0ccc" fill-rule="evenodd"/></svg>