<?xml version="1.0" standalone="no"?>
<!DOCTYPE svg PUBLIC "-//W3C//DTD SVG 20010904//EN"
 "http://www.w3.org/TR/2001/REC-SVG-20010904/DTD/svg10.dtd">
<svg version="1.0" xmlns="http://www.w3.org/2000/svg"
 width="454.000000pt" height="454.000000pt" viewBox="0 0 454.000000 454.000000"
 preserveAspectRatio="xMidYMid meet">
<metadata>
Created by potrace 1.11, written by Peter Selinger 2001-2013
</metadata>
<g transform="translate(0.000000,454.000000) scale(0.100000,-0.100000)"
fill="#000000" stroke="none">
<path d="M2235 3765 c-11 -11 -56 -62 -100 -114 -44 -52 -125 -147 -180 -211
-55 -64 -120 -141 -145 -170 -25 -29 -50 -58 -55 -64 -6 -6 -46 -54 -90 -106
-44 -52 -84 -100 -90 -106 -20 -21 -94 -109 -108 -128 -12 -16 -28 -19 -123
-19 l-109 -1 -53 155 c-30 85 -68 195 -85 244 l-32 90 -100 2 c-55 1 -173 4
-263 6 -144 3 -163 1 -159 -13 3 -8 62 -157 132 -330 235 -583 285 -709 285
-717 0 -4 -12 -21 -28 -38 -15 -16 -52 -59 -82 -95 -30 -36 -57 -67 -60 -70
-5 -5 -632 -738 -675 -789 -11 -13 -24 -29 -30 -35 -42 -47 -48 -44 132 -46
92 0 233 -2 312 -3 l144 -3 146 171 c80 93 148 172 151 175 3 3 26 30 51 60
l47 56 66 -1 c36 -1 70 -5 75 -11 5 -5 30 -61 56 -124 25 -63 49 -122 53 -130
4 -8 68 -166 142 -350 l134 -335 36 3 c19 1 104 4 188 6 84 2 154 5 156 7 18
17 236 306 236 311 0 4 -28 8 -62 10 l-63 3 33 18 c18 10 49 20 69 23 20 2 42
9 50 15 12 11 103 134 103 141 0 2 -76 3 -170 3 -93 0 -170 3 -170 7 0 4 18
19 39 33 37 23 48 24 198 26 l158 1 54 70 c29 38 51 71 49 73 -2 2 -109 5
-238 6 -129 2 -254 5 -278 7 -42 4 -43 5 -25 22 38 35 58 37 308 37 l250 0 72
72 c40 39 67 71 60 72 -6 0 -145 2 -307 5 -432 5 -432 5 -385 42 28 22 -9 21
810 24 80 0 163 9 303 34 198 35 247 49 270 77 12 14 -57 15 -724 16 -406 1
-739 3 -741 5 -2 2 20 20 49 39 l53 37 718 -5 719 -5 38 37 c43 43 19 40 330
47 189 4 266 18 340 61 30 17 38 17 -465 15 -1229 -6 -1747 -6 -1751 1 -3 5
13 20 35 34 l41 25 1176 0 1177 0 81 45 c121 67 115 59 82 94 l-29 30 -1061 0
c-584 0 -1153 1 -1266 1 l-205 0 36 24 35 24 1168 0 c642 0 1170 2 1172 5 12
12 -214 106 -238 99 -5 -1 -8 2 -8 6 0 4 -8 8 -17 9 -10 1 -43 8 -73 18 -49
14 -154 17 -965 21 -500 2 -943 5 -984 5 l-74 1 27 26 26 27 760 5 759 5 -32
36 c-18 20 -47 54 -66 77 l-33 42 -673 2 c-671 3 -673 3 -659 23 14 19 27 20
422 22 224 1 410 2 413 2 13 2 -49 145 -65 151 -8 3 -162 5 -341 4 l-326 -1
27 29 28 28 303 0 c167 0 303 3 303 8 0 4 -9 24 -20 45 -11 20 -20 39 -19 42
1 3 -4 19 -11 35 l-12 30 -200 2 -200 3 21 27 22 27 165 0 c91 -1 168 1 170 4
5 5 -24 126 -33 136 -4 5 -60 12 -121 14 l-44 1 31 28 c17 15 44 29 59 30 15
0 32 2 37 3 6 2 13 3 17 4 4 0 -7 31 -24 69 -92 204 -106 230 -130 238 -12 4
-88 8 -168 8 -133 1 -147 0 -165 -19z"/>
<path d="M71 2490 c-5 -3 -12 -27 -16 -55 -5 -27 -9 -54 -10 -60 -28 -127 -46
-231 -43 -253 4 -36 20 -38 293 -37 l220 0 12 60 c7 33 15 74 18 90 3 17 10
53 15 80 6 28 13 61 15 75 3 14 8 42 11 63 l7 37 -39 1 c-142 4 -477 3 -483
-1z"/>
</g>
</svg>
